<svg width="97" height="32" viewBox="0 0 97 32" fill="none" xmlns="http://www.w3.org/2000/svg">
<g clip-path="url(#clip0)">
<path d="M9.99275 13.8692C9.9925 14.196 10.0298 14.5218 10.1039 14.84H2.24008C2.16576 14.1954 2.1293 13.5469 2.13091 12.8979H10.1039C10.0298 13.2164 9.9925 13.5423 9.99275 13.8692Z" fill="#FF6E00"/>
<path d="M26.326 12.8979C26.3293 13.5469 26.2928 14.1955 26.2168 14.84H18.3516C18.4997 14.2012 18.4997 13.5368 18.3516 12.8979H26.326Z" fill="#FF6E00"/>
<path d="M11.9056 10.3209C11.3032 10.7176 10.8115 11.2615 10.4771 11.9011L9.36962 10.8319C8.37562 9.86743 7.04498 9.32927 5.66073 9.33184H2.13281V7.19923H5.66073C7.59735 7.1955 9.4589 7.94887 10.8488 9.29886L11.9056 10.3209Z" fill="#00C8FF"/>
<path d="M25.2941 18.7602C25.0744 19.3719 24.8227 19.9717 24.5402 20.5571C24.4861 20.6683 24.4325 20.7801 24.3754 20.8908H22.7841C20.8473 20.8948 18.9855 20.1418 17.595 18.7922L16.3164 17.5565C16.9436 17.199 17.4696 16.6875 17.8448 16.0703L19.0742 17.2592C20.0684 18.2241 21.3994 18.7626 22.7841 18.7602H25.2941Z" fill="#00C8FF"/>
<path fill-rule="evenodd" clip-rule="evenodd" d="M28.4535 12.6626V1.31669L25.7753 0.897696C18.1237 -0.299232 10.3328 -0.299232 2.68109 0.897696L0.00244742 1.31669V12.6626C-0.0998396 18.8634 3.01549 24.8416 7.20778 28.0941C7.20778 28.0941 10.5129 30.8883 14.2277 32C18.3944 30.6504 21.2467 28.0941 21.2467 28.0941C25.4404 24.8416 28.5553 18.8634 28.4535 12.6626ZM2.13277 12.6981V3.09706L2.78829 2.99564C10.3693 1.82087 18.0857 1.82087 25.6666 2.99564L26.3232 3.09755V7.19989H22.7711C20.8342 7.19601 18.9723 7.94948 17.582 9.2998L16.5331 10.3145C15.7299 9.79173 14.7733 9.55706 13.8197 9.64889C12.866 9.74071 11.9716 10.1536 11.2826 10.8201C10.5936 11.4866 10.1508 12.3673 10.0263 13.3184C9.90188 14.2695 10.1032 15.2347 10.5975 16.0564L9.35482 17.2588C8.35605 18.2263 7.0391 18.7605 6.11754 18.7605H3.16253C2.45389 16.7782 2.09982 14.7138 2.13277 12.6981ZM24.5415 20.5571C23.4104 22.9091 21.7743 24.9883 19.942 26.4088C19.942 26.4088 17.4783 28.5422 14.21 29.7499C11.2314 28.6756 8.51145 26.4088 8.51145 26.4088C6.76667 25.0548 5.20335 23.105 4.07917 20.8914H5.64692C7.5834 20.8954 9.44493 20.1423 10.835 18.7925L12.1215 17.5478C12.9173 18.0049 13.8399 18.1908 14.7504 18.0776C15.6609 17.9644 16.5101 17.5581 17.17 16.9199C17.8299 16.2817 18.265 15.4462 18.4096 14.539C18.5543 13.6319 18.4007 12.7023 17.972 11.8901L19.0642 10.8335C20.0575 9.86906 21.3875 9.33081 22.7711 9.33328H26.3217V12.6981C26.3669 15.3327 25.7512 18.05 24.5415 20.5571ZM43.998 22.2384L40.654 16.6186H38.8099V22.2384H36.056V7.24606H41.6282C43.251 7.24606 44.4854 7.69263 45.3568 8.60546C46.2282 9.51829 46.6536 10.6138 46.6536 11.9323C46.6536 13.8801 45.6002 15.625 43.5127 16.2941L47.2815 22.2384H43.998ZM38.8109 9.82257V14.1233H41.3233C43.0052 14.1233 43.8156 13.1701 43.8156 11.953C43.8156 10.7556 43.0052 9.82257 41.6272 9.82257H38.8109ZM54.0724 20.2123C55.1113 20.2193 56.1354 19.9653 57.051 19.4737L58.1186 21.387C56.9049 22.1172 55.5187 22.4835 53.9711 22.4835C49.8378 22.4835 48.0143 19.6441 48.0143 16.7229C48.0143 15.0592 48.541 13.6796 49.5944 12.6043C50.6684 11.5087 52.0463 10.9608 53.7281 10.9608C55.3274 10.9608 56.6256 11.4685 57.6386 12.4625C58.6723 13.4571 59.1789 14.7958 59.1789 16.4999C59.1763 16.8934 59.1492 17.2864 59.0977 17.6766H50.7092C51.0534 19.198 52.1879 20.2123 54.0724 20.2123ZM56.5853 15.6668C56.3625 14.1247 55.2477 13.1715 53.7281 13.1715V13.171C52.1879 13.171 51.0534 14.1242 50.7092 15.6668H56.5853ZM70.1728 22.2395H67.1332L64.8839 18.5064L62.5726 22.2395H59.5128L63.201 16.5995L59.8993 11.2234H62.9389L64.9448 14.7128L67.0722 11.2234H70.072L66.5873 16.6807L70.1728 22.2395ZM82.712 6.57665C81.7595 6.57665 81.01 7.28703 81.01 8.24011C81.01 9.21386 81.7393 9.90356 82.712 9.90356C83.6641 9.90356 84.3732 9.21386 84.3732 8.24011C84.3732 7.28703 83.6646 6.57665 82.712 6.57665ZM75.5189 11.2235V7.32843H72.9051V11.2235H71.0409V13.4553H72.8643V18.2022C72.8643 21.0224 74.1429 22.5034 76.6332 22.5034C77.8695 22.5034 78.9445 22.1986 79.8144 21.5901L78.9838 19.5222C78.3554 19.9072 77.7274 20.0899 77.1196 20.0899C76.0455 20.0899 75.5189 19.4208 75.5189 18.1017V13.4553H81.3541V22.2395H84.0097V11.2235H75.5189ZM91.8933 20.2123C92.9322 20.2193 93.9563 19.9653 94.8719 19.4737L95.9395 21.387C94.7258 22.1172 93.3396 22.4835 91.792 22.4835C87.6587 22.4835 85.8347 19.6441 85.8347 16.7229C85.8347 15.0592 86.3619 13.6796 87.4153 12.6043C88.4893 11.5087 89.8672 10.9608 91.549 10.9608C93.1483 10.9608 94.4465 11.4685 95.4596 12.4625C96.4932 13.4571 96.9998 14.7958 96.9998 16.4999C96.9972 16.8934 96.9701 17.2864 96.9186 17.6766H88.5301C88.8743 19.198 90.0088 20.2123 91.8933 20.2123ZM94.4062 15.6668C94.1834 14.1247 93.0686 13.1715 91.549 13.1715V13.171C90.0088 13.171 88.8743 14.1242 88.5301 15.6668H94.4062Z" fill="#000096"/>
<path d="M14.2248 16.3818C15.611 16.3818 16.7348 15.2568 16.7348 13.8691C16.7348 12.4814 15.611 11.3564 14.2248 11.3564C12.8386 11.3564 11.7148 12.4814 11.7148 13.8691C11.7148 15.2568 12.8386 16.3818 14.2248 16.3818Z" fill="#FF6E00"/>
</g>
<defs>
<clipPath id="clip0">
<rect width="97" height="32" fill="white"/>
</clipPath>
</defs>
</svg>
