<svg xmlns="http://www.w3.org/2000/svg" width="134" height="21" fill="none" xmlns:v="https://vecta.io/nano"><path d="M31.236 14.955H28.68l-2.304-4.043h-1.3v4.043H22.89V3.848h4.18c1.211 0 2.137.341 2.777 1.022s.96 1.513.96 2.495a3.59 3.59 0 0 1-.576 1.999c-.374.581-.921 1.002-1.639 1.262l2.644 4.329zm-4.18-9.048h-1.979v3.006h1.787c.551 0 .97-.14 1.255-.421.295-.281.443-.646.443-1.097 0-.431-.138-.787-.414-1.067-.266-.281-.63-.421-1.093-.421zm13.384 4.764c0 .25-.025.561-.074.932h-6.041c.295 1.162 1.078 1.743 2.348 1.743a4.48 4.48 0 0 0 2.599-.827l.827 1.488c-1.024.752-2.196 1.127-3.515 1.127-1.408 0-2.491-.416-3.249-1.247-.748-.822-1.123-1.834-1.123-3.036 0-1.252.389-2.279 1.167-3.081.778-.812 1.787-1.217 3.028-1.217 1.172 0 2.137.371 2.895 1.112s1.137 1.743 1.137 3.006zm-4.032-2.36c-.522 0-.97.155-1.344.466-.364.301-.611.716-.739 1.247h4.091c-.098-.531-.325-.947-.679-1.247-.355-.311-.798-.466-1.329-.466zm10.019 2.526l2.585 4.118h-2.393l-1.536-2.69-1.61 2.69h-2.407l2.673-4.178-2.378-4.013h2.378l1.374 2.51 1.477-2.51h2.348l-2.511 4.073zm9.182 1.969l.62 1.668c-.669.451-1.462.676-2.378.676-.926 0-1.625-.271-2.097-.812-.473-.551-.709-1.358-.709-2.42V8.537H49.73V6.764h1.329V3.863h2.068v2.901h2.658v1.773h-2.658v3.246c0 .962.379 1.443 1.137 1.443.414 0 .862-.14 1.344-.421zm4.268-8.267c0 .371-.123.681-.369.932a1.23 1.23 0 0 1-.916.376 1.23 1.23 0 0 1-.916-.376c-.246-.25-.369-.561-.369-.932s.123-.676.369-.917a1.23 1.23 0 0 1 .916-.376 1.23 1.23 0 0 1 .916.376c.246.24.369.546.369.917zm-.251 2.224v8.191h-2.082v-8.19h2.082zm9.962 3.908c0 .25-.025.561-.074.932h-6.041c.295 1.162 1.078 1.743 2.348 1.743a4.48 4.48 0 0 0 2.599-.827l.827 1.488c-1.024.752-2.196 1.127-3.515 1.127-1.408 0-2.491-.416-3.249-1.247-.748-.822-1.122-1.834-1.122-3.036 0-1.252.389-2.279 1.167-3.081.778-.812 1.787-1.217 3.028-1.217 1.172 0 2.137.371 2.895 1.112s1.137 1.743 1.137 3.006zm-4.032-2.36c-.522 0-.97.155-1.344.466-.364.301-.61.716-.738 1.247h4.091c-.098-.531-.325-.947-.679-1.247-.355-.311-.798-.466-1.329-.466z" fill="#fff"/><path d="M6.321 9.252a2.74 2.74 0 0 0 .07.613H1.419c-.076-.622-.069-1.226-.069-1.226h5.043a2.64 2.64 0 0 0-.07.613m10.331-.613s.011.532-.069 1.226H11.61a2.64 2.64 0 0 0 .07-.613 2.64 2.64 0 0 0-.07-.613h5.045-.002z" fill="#ff6e00"/><path d="M7.532 7.015a2.67 2.67 0 0 0-.904.997l-.699-.674a3.36 3.36 0 0 0-2.347-.947H1.35V5.046h2.231a4.7 4.7 0 0 1 3.282 1.325l.668.645.002-.002zm8.47 5.324a11.07 11.07 0 0 1-.477 1.134l-.105.211h-1.007a4.7 4.7 0 0 1-3.282-1.325l-.809-.781c.397-.225.731-.55.968-.938l.778.75a3.36 3.36 0 0 0 2.347.947h1.589l-.002.002z" fill="#00c8ff"/><path d="M17.998 8.491v-7.16l-1.693-.265c-4.839-.755-9.767-.755-14.609 0l-1.695.265v7.16c-.065 3.912 1.906 7.686 4.558 9.738 0 0 2.09 1.763 4.441 2.465 2.634-.851 4.441-2.465 4.441-2.465 2.652-2.052 4.623-5.825 4.558-9.738zM1.35 8.513V2.455l.415-.065a47.38 47.38 0 0 1 14.472 0l.415.065v2.589h-2.246a4.7 4.7 0 0 0-3.282 1.325l-.664.64A2.66 2.66 0 0 0 9 6.577c-1.48 0-2.679 1.197-2.679 2.676 0 .505.141.977.384 1.381l-.785.759c-.634.611-1.466.947-2.049.947h-1.87c-.448-1.251-.673-2.553-.652-3.826zm14.175 4.96c-.717 1.484-1.751 2.796-2.91 3.693 0 0-1.558 1.347-3.625 2.108-1.885-.678-3.605-2.108-3.605-2.108-1.103-.855-2.092-2.084-2.803-3.482h.991a4.7 4.7 0 0 0 3.282-1.325l.814-.786a2.66 2.66 0 0 0 1.33.353c1.48 0 2.679-1.197 2.679-2.676a2.65 2.65 0 0 0-.311-1.249l.691-.667c.632-.609 1.466-.947 2.347-.947h2.246v2.124c.027 1.662-.363 3.377-1.126 4.96" fill="#fff"/><path d="M10.587 9.252a1.59 1.59 0 0 1-1.588 1.587A1.59 1.59 0 0 1 7.41 9.252a1.59 1.59 0 0 1 1.588-1.587 1.59 1.59 0 0 1 1.588 1.587z" fill="#ff6e00"/><path d="M82.349 11.637c0 .879-.306 1.617-.936 2.21-.614.593-1.447.895-2.485.895H74V4.075h4.708c.965 0 1.712.258 2.252.794s.818 1.154.818 1.863c0 .939-.601 1.863-1.476 2.165 1.332.328 2.048 1.425 2.048 2.739zm-6.216-5.702v2.323h2.121c.891 0 1.374-.564 1.374-1.198 0-.621-.482-1.125-1.287-1.125h-2.207zm2.37 6.928c1.038 0 1.61-.649 1.61-1.399 0-.766-.556-1.415-1.61-1.415h-2.37v2.815h2.37zm5.089-1.444V6.874h2.064v4.545c0 .996.6 1.645 1.594 1.645s1.594-.649 1.594-1.645V6.874h2.063v4.545c0 2.21-1.374 3.508-3.657 3.508-2.268 0-3.657-1.299-3.657-3.508zm8.134 2.005l1.096-1.286c.571.678 1.405 1.097 2.207 1.097.629 0 1.096-.318 1.096-.766 0-.274-.191-.504-.572-.678l-.952-.359-1.022-.419c-.92-.432-1.373-1.113-1.373-2.036 0-.693.278-1.254.818-1.702s1.271-.665 2.166-.665c1.127 0 2.063.375 2.794 1.125l-1.022 1.314c-.556-.52-1.168-.779-1.827-.779-.539 0-.907.303-.907.665 0 .331.234.564.703.722l1.916.766c.891.463 1.345 1.125 1.345 1.992 0 .734-.294 1.343-.879 1.819-.572.476-1.344.706-2.296.706-1.389 0-2.488-.504-3.29-1.516zm7.75-7.792c-.483-.476-.483-1.314 0-1.775.482-.476 1.331-.476 1.814 0 .482.463.482 1.299 0 1.775s-1.332.476-1.814 0zm1.932 9.106h-2.064V6.873h2.064v7.864zm1.644 0V6.874h2.019V7.97c.425-.766 1.373-1.314 2.501-1.314a3.13 3.13 0 0 1 2.207.851c.6.564.907 1.371.907 2.424v4.807h-2.063V10.48c0-1.255-.675-1.948-1.684-1.948-1.095 0-1.827.823-1.827 1.992v4.214h-2.06zm16.85-3.218h-5.982c.293 1.113 1.066 1.674 2.325 1.674.862 0 1.888-.331 2.574-.794l.818 1.428c-1.01.722-2.166 1.081-3.482 1.081-1.405 0-2.472-.403-3.216-1.198s-1.111-1.775-1.111-2.916c0-1.198.38-2.178 1.155-2.96s1.77-1.169 3-1.169c1.156 0 2.12.359 2.865 1.069s1.127 1.661 1.127 2.887c0 .277-.028.58-.073.898zm-5.982-1.516h4.05c-.192-1.024-.936-1.645-1.99-1.645-1.035 0-1.812.621-2.06 1.645zm6.552 3.42l1.095-1.286c.573.678 1.406 1.097 2.207 1.097.63 0 1.096-.318 1.096-.766 0-.274-.192-.504-.571-.678l-.953-.359-1.022-.419c-.92-.432-1.373-1.113-1.373-2.036 0-.693.278-1.254.818-1.702s1.271-.665 2.165-.665c1.127 0 2.064.375 2.795 1.125l-1.022 1.314c-.555-.52-1.169-.779-1.827-.779-.54 0-.907.303-.907.665 0 .331.233.564.702.722l1.917.766c.891.463 1.345 1.125 1.345 1.992 0 .734-.294 1.343-.879 1.819-.571.476-1.344.706-2.296.706-1.387 0-2.485-.504-3.29-1.516zm7.066 0l1.096-1.286c.572.678 1.406 1.097 2.207 1.097.629 0 1.095-.318 1.095-.766 0-.274-.191-.504-.571-.678l-.952-.359-1.022-.419c-.92-.432-1.374-1.113-1.374-2.036 0-.693.279-1.254.818-1.702s1.271-.665 2.166-.665c1.128 0 2.063.375 2.795 1.125l-1.025 1.314c-.557-.52-1.17-.779-1.827-.779-.54 0-.908.303-.908.665 0 .331.233.564.703.722l1.916.766c.891.463 1.345 1.125 1.345 1.992 0 .734-.294 1.343-.879 1.819-.571.476-1.344.706-2.296.706-1.383 0-2.482-.504-3.287-1.516z" fill="#00c8ff"/></svg>